<?xml version="1.0" encoding="UTF-8" standalone="no"?>
<!-- Created with Inkscape (http://www.inkscape.org/) -->

<svg
   width="114mm"
   height="45mm"
   viewBox="0 0 114 45"
   version="1.1"
   id="svg5"
   inkscape:version="1.2.2 (732a01da63, 2022-12-09)"
   sodipodi:docname="SINE logo.svg"
   xmlns:inkscape="http://www.inkscape.org/namespaces/inkscape"
   xmlns:sodipodi="http://sodipodi.sourceforge.net/DTD/sodipodi-0.dtd"
   xmlns:xlink="http://www.w3.org/1999/xlink"
   xmlns="http://www.w3.org/2000/svg"
   xmlns:svg="http://www.w3.org/2000/svg">
  <sodipodi:namedview
     id="namedview7"
     pagecolor="#505050"
     bordercolor="#eeeeee"
     borderopacity="1"
     inkscape:showpageshadow="0"
     inkscape:pageopacity="0"
     inkscape:pagecheckerboard="0"
     inkscape:deskcolor="#505050"
     inkscape:document-units="mm"
     showgrid="false"
     inkscape:zoom="2.9932659"
     inkscape:cx="223.16761"
     inkscape:cy="44.600114"
     inkscape:window-width="1920"
     inkscape:window-height="1001"
     inkscape:window-x="-9"
     inkscape:window-y="-9"
     inkscape:window-maximized="1"
     inkscape:current-layer="layer1" />
  <defs
     id="defs2">
    <linearGradient
       inkscape:collect="always"
       id="linearGradient990">
      <stop
         style="stop-color:#942420;stop-opacity:1;"
         offset="0.33815026"
         id="stop986" />
      <stop
         style="stop-color:#774646;stop-opacity:1;"
         offset="1"
         id="stop988" />
    </linearGradient>
    <linearGradient
       id="linearGradient4192"
       inkscape:swatch="solid">
      <stop
         style="stop-color:#611b10;stop-opacity:1;"
         offset="0"
         id="stop4190" />
    </linearGradient>
    <linearGradient
       id="linearGradient2188"
       inkscape:swatch="solid">
      <stop
         style="stop-color:#000000;stop-opacity:1;"
         offset="0"
         id="stop2186" />
    </linearGradient>
    <linearGradient
       inkscape:collect="always"
       id="linearGradient2145">
      <stop
         style="stop-color:#942420;stop-opacity:1;"
         offset="0.33815026"
         id="stop2141" />
      <stop
         style="stop-color:#774646;stop-opacity:1;"
         offset="0.60982656"
         id="stop2143" />
    </linearGradient>
    <linearGradient
       inkscape:collect="always"
       xlink:href="#linearGradient2145"
       id="linearGradient2147"
       x1="52.297222"
       y1="140.32274"
       x2="156.0106"
       y2="140.32274"
       gradientUnits="userSpaceOnUse"
       gradientTransform="matrix(0.83756561,0,0,0.83756561,-30.334325,-91.868981)" />
    <linearGradient
       inkscape:collect="always"
       xlink:href="#linearGradient990"
       id="linearGradient998"
       x1="39.447479"
       y1="6.600822"
       x2="46.103455"
       y2="6.600822"
       gradientUnits="userSpaceOnUse"
       gradientTransform="matrix(0.81103289,0,0,0.81103289,7.6511321,1.2452521)" />
  </defs>
  <g
     inkscape:label="Calque 1"
     inkscape:groupmode="layer"
     id="layer1">
    <rect
       style="fill:#ffffff;fill-opacity:1;stroke:none;stroke-width:1.232;stroke-opacity:1;paint-order:normal"
       id="rect1804"
       width="111.72857"
       height="42.693748"
       x="0.96458852"
       y="0.94302535" />
    <path
       style="color:#000000;fill:url(#linearGradient2147);stroke:none;stroke-width:0.837566;stroke-opacity:1;-inkscape-stroke:none;paint-order:markers stroke fill"
       d="m 71.498601,9.7103887 c -0.399728,-0.027137 -0.766364,0.2170886 -0.979885,0.5120293 -0.21352,0.294932 -0.349642,0.657154 -0.467856,1.092755 -0.236436,0.871202 -0.376368,2.049766 -0.47113,3.464774 -0.189541,2.830017 -0.185898,6.584296 -0.229024,10.340334 -0.04314,3.756046 -0.134354,7.515041 -0.498938,10.296169 -0.182296,1.390568 -0.438122,2.539047 -0.759044,3.284832 -0.160469,0.372892 -0.336894,0.641039 -0.495671,0.793392 -0.158778,0.152362 -0.276229,0.197197 -0.430233,0.197942 -0.154865,7.54e-4 -0.296071,-0.049 -0.480947,-0.207758 -0.184884,-0.158727 -0.391888,-0.430324 -0.593825,-0.803209 -0.403866,-0.745776 -0.78304,-1.883701 -1.118929,-3.263557 -0.671795,-2.75972 -1.794451,-6.331686 -2.31643,-10.054054 -0.52198,-3.722368 -1.664369,-7.539213 -2.365009,-10.335535 -0.350329,-1.398165 -0.739671,-2.565966 -1.231816,-3.420601 -0.246069,-0.427326 -0.51847,-0.781625 -0.855557,-1.037149 -0.337095,-0.255516 -0.759127,-0.400809 -1.189276,-0.359885 -0.806718,0.07672 -1.424867,0.66238 -1.845266,1.441199 -0.420399,0.778819 -0.703337,1.794124 -0.91772,2.987102 -0.428765,2.385948 0.0067,5.195085 0.248212,8.624405 0.241722,3.42932 0.361426,6.364795 0.294505,8.949841 -0.03359,1.292531 -0.09366,2.42595 -0.20285,3.297915 -0.109194,0.871972 -0.310134,1.495783 -0.425324,1.653865 -0.919599,1.262035 -1.923861,2.026389 -2.866042,2.265682 -0.942181,0.239292 -1.854948,0.01834 -2.808789,-0.860465 -0.0981,-0.09038 -0.419028,-0.639397 -0.706696,-1.439566 -0.287669,-0.800176 -0.595954,-1.865551 -0.912816,-3.096706 -0.633723,-2.4623 -0.623931,-5.630426 -0.672277,-8.804263 -0.04971,-3.263625 -0.527343,-5.037606 -0.914403,-7.577289 -0.18456,-1.210977 -0.814648,-3.304883 -1.066601,-4.073375 -0.125977,-0.38425 -0.247578,-0.705992 -0.372979,-0.968435 -0.1254,-0.262451 -0.21963,-0.471876 -0.480946,-0.651082 -1.621865,-1.11222 -5.555577,-1.466602 -10.312627,-1.58351 -2.36724,-0.05821 -6.910715,-0.131673 -10.999592,0.891547 -2.044438,0.51161 -3.984849,1.296937 -5.481801,2.535604 -1.496952,1.238659 -2.534455,2.957403 -2.702458,5.193887 -0.08803,1.171939 0.277353,2.179254 0.960256,2.956012 0.682903,0.776767 1.651262,1.337701 2.787523,1.781469 2.272522,0.887526 5.255894,1.318973 8.225156,1.766736 2.969263,0.44777 5.923983,0.910634 8.041939,1.763469 1.058977,0.426421 1.899954,0.94789 2.447262,1.57371 0.547307,0.625821 0.827935,1.344184 0.783582,2.314755 -0.08887,1.944744 -1.479524,3.509626 -3.683981,4.802911 -2.204456,1.293294 -5.171758,2.25559 -8.135182,2.944571 -5.926849,1.377963 -11.827343,1.681673 -11.827343,1.681673 l 0.05235,1.030599 c 0,0 5.967632,-0.301641 12.008925,-1.706213 3.020646,-0.702282 6.064859,-1.677209 8.423096,-3.060716 2.358238,-1.3835 4.082565,-3.234561 4.192736,-5.645385 0.05517,-1.207217 -0.335495,-2.23878 -1.037142,-3.041084 -0.701647,-0.802304 -1.687145,-1.388298 -2.838235,-1.851807 -2.30218,-0.927018 -5.303079,-1.379211 -8.274232,-1.827267 -2.971154,-0.448055 -5.913399,-0.89189 -8.002677,-1.707846 -1.04464,-0.407978 -1.866072,-0.906003 -2.388372,-1.500097 -0.522299,-0.594085 -0.776517,-1.26913 -0.706696,-2.19861 0.147711,-1.966344 1.008432,-3.381277 2.331115,-4.475741 1.322683,-1.094464 3.123811,-1.841338 5.074471,-2.329479 3.901318,-0.976284 8.369073,-0.919949 10.723129,-0.862098 4.685547,0.115148 8.144993,0.154723 9.717779,1.412822 -0.06974,-0.04783 0.07738,0.03987 0.171158,0.236127 0.09378,0.196275 0.204533,0.485 0.322267,0.844107 0.235467,0.718204 0.84578,2.798951 1.045335,3.99322 0.406648,2.43363 0.805273,4.255562 0.907859,7.547848 0.09894,3.175203 0.03947,6.353194 0.682092,8.850061 0.321311,1.248434 0.635743,2.335711 0.942262,3.188311 0.306518,0.852608 0.550856,1.456384 0.97825,1.850174 1.148125,1.057854 2.490899,1.423485 3.760866,1.100938 1.269967,-0.322546 2.434886,-1.267965 3.446781,-2.656649 0.367674,-0.5046 0.496584,-1.199963 0.61345,-2.133179 0.116857,-0.933216 0.178619,-2.090246 0.212658,-3.399336 0.06809,-2.618179 -0.08233,-5.767284 -0.294505,-8.962931 -0.212164,-3.195648 -0.672004,-6.190339 -0.264571,-8.457554 0.203713,-1.133603 0.478426,-2.064097 0.809759,-2.677915 0.331332,-0.613827 0.658444,-0.868765 1.035499,-0.904638 0.161742,-0.01541 0.290267,0.02077 0.467864,0.15541 0.177598,0.134614 0.382349,0.379401 0.584001,0.729595 0.403322,0.700381 0.786759,1.80374 1.125479,3.155596 0.67744,2.703704 1.821864,6.507466 2.343751,10.229197 0.521888,3.72174 1.642952,7.306571 2.336055,10.153842 0.346551,1.423635 0.732133,2.622753 1.213816,3.512214 0.240842,0.44473 0.505346,0.816191 0.829383,1.094397 0.324037,0.278205 0.727778,0.458491 1.158203,0.456406 0.431279,-0.0017 0.835773,-0.193738 1.140194,-0.485847 0.30443,-0.292118 0.532566,-0.676317 0.727962,-1.130387 0.3908,-0.908155 0.647346,-2.119468 0.835933,-3.55802 0.377172,-2.877105 0.463902,-6.652809 0.50712,-10.417223 0.04322,-3.764413 0.04205,-7.516715 0.227383,-10.284719 0.09269,-1.384002 0.234979,-2.525989 0.435149,-3.263558 0.10008,-0.368788 0.219986,-0.634221 0.309178,-0.757411 0.08918,-0.123189 0.07144,-0.08848 0.07362,-0.08834 3.206419,0.217608 3.688397,0.330119 8.166265,0.444957 2.229457,0.05721 4.367796,0.172045 5.810612,0.822841 0.721403,0.325403 1.265402,0.764832 1.632599,1.403584 0.367189,0.638745 0.565843,1.500642 0.49403,2.705723 -0.03149,0.528437 -0.202674,0.868463 -0.497305,1.154927 -0.29463,0.286465 -0.739176,0.513018 -1.310329,0.673981 -1.142314,0.321918 -2.748488,0.367834 -4.362871,0.386068 -1.614374,0.01826 -3.23359,0.0096 -4.524814,0.310812 -0.645613,0.150594 -1.223524,0.379719 -1.662049,0.786851 -0.438516,0.407132 -0.692985,1.008856 -0.672339,1.694764 0.02086,0.691636 0.312437,1.294667 0.760677,1.747111 0.44824,0.452445 1.036396,0.773819 1.699672,1.033866 1.326545,0.520095 2.983216,0.795009 4.580437,1.084581 1.597221,0.289579 3.136223,0.599496 4.132205,1.084588 0.498,0.242543 0.847533,0.520397 1.040416,0.8212 0.192883,0.300812 0.266455,0.632404 0.160319,1.140203 -0.218052,1.043171 -0.876622,1.601911 -1.895981,2.007218 -1.019351,0.405306 -2.369331,0.581714 -3.706881,0.72632 -1.33755,0.144614 -2.65639,0.253364 -3.706881,0.623274 -0.525246,0.184952 -0.996888,0.440577 -1.338137,0.845741 -0.341258,0.405164 -0.512749,0.958049 -0.466222,1.568802 0.04824,0.633049 0.378856,1.163672 0.853923,1.44774 0.475059,0.284078 1.039134,0.36739 1.653865,0.38116 1.229446,0.02756 2.718479,-0.248766 4.168196,-0.413875 1.449709,-0.165109 2.846023,-0.201602 3.759229,0.160319 0.456599,0.180956 0.791566,0.439386 1.033866,0.84574 0.242307,0.406353 0.394627,0.985446 0.374618,1.822358 -0.02329,0.972808 0.130308,1.677921 0.624899,2.11028 0.494591,0.432352 1.174962,0.389912 1.792918,0.184851 1.235903,-0.410131 2.671893,-1.484024 4.127299,-2.461982 1.455404,-0.977959 2.936304,-1.827468 3.800127,-1.881256 0.431916,-0.02689 0.664315,0.05737 0.901363,0.402425 0.237056,0.345085 0.437921,1.041823 0.451507,2.182252 l 1.030596,-0.01307 c -0.0149,-1.247964 -0.20608,-2.131571 -0.633079,-2.75317 -0.427008,-0.621591 -1.130588,-0.889939 -1.814184,-0.847374 -1.367184,0.08512 -2.835755,1.060953 -4.312157,2.053016 -1.476395,0.992063 -2.953651,2.03288 -3.877009,2.339295 -0.461683,0.1532 -0.672833,0.119102 -0.788492,0.01801 -0.11566,-0.101102 -0.29159,-0.470729 -0.271556,-1.308696 0.02329,-0.973854 -0.153961,-1.761082 -0.520203,-2.375286 -0.366243,-0.614195 -0.919162,-1.031169 -1.540996,-1.277614 -1.243659,-0.492882 -2.761554,-0.39601 -4.256533,-0.225749 -1.494971,0.17026 -2.9801,0.430802 -4.02751,0.407333 -0.523704,-0.01173 -0.924898,-0.100298 -1.148378,-0.233932 -0.223487,-0.133634 -0.324874,-0.267326 -0.353352,-0.641257 -0.03015,-0.396236 0.05528,-0.620159 0.227383,-0.824483 0.172094,-0.204316 0.470108,-0.389795 0.891555,-0.538203 0.842884,-0.2968 2.125557,-0.425064 3.47459,-0.570918 1.349025,-0.145845 2.769939,-0.313534 3.976795,-0.793392 1.206865,-0.479858 2.231552,-1.347116 2.525788,-2.754804 0.15,-0.717626 0.03367,-1.383013 -0.302637,-1.90743 C 87.247851,25.814627 86.729021,25.439917 86.12656,25.146493 84.921654,24.559653 83.330858,24.264528 81.726074,23.973574 80.121281,23.682629 78.50318,23.401182 77.33867,22.944617 76.756412,22.71633 76.294151,22.446006 75.995617,22.144675 75.697084,21.843344 75.54587,21.531342 75.53267,21.092809 c -0.0134,-0.444261 0.103531,-0.685086 0.343527,-0.907904 0.240005,-0.222826 0.648385,-0.410893 1.194184,-0.538203 1.091608,-0.25462 2.680236,-0.264696 4.30234,-0.283005 1.622114,-0.01834 3.280519,-0.04473 4.631152,-0.425332 0.675312,-0.190312 1.283896,-0.472346 1.750378,-0.925896 0.466482,-0.453558 0.763517,-1.085334 0.808125,-1.833816 0.08041,-1.348741 -0.141515,-2.433773 -0.629816,-3.283191 -0.488292,-0.849408 -1.234236,-1.437446 -2.102088,-1.828899 -1.735713,-0.782915 -3.969031,-0.855348 -6.209762,-0.912821 -4.462558,-0.114445 -4.89862,-0.2245517 -8.1221,-0.4433154 z"
       id="path790"
       sodipodi:nodetypes="cssssssssssssssscsszcssssssssssscsssssssssssccsssssssssssscssssssssssszsssssssssscssssssscssssssssscssssssssssssssssssssssccssssssssssssssssssssssssscsssssscc" />
    <circle
       style="fill:none;fill-opacity:1;stroke:url(#linearGradient998);stroke-width:0.9;stroke-linecap:butt;stroke-linejoin:round;stroke-dasharray:none"
       id="path976"
       cx="42.343437"
       cy="6.5987353"
       r="2.699106" />
  </g>
</svg>
